<?xml version="1.0" encoding="iso-8859-1"?>
<svg height="800px" width="800px" version="1.1" id="Layer_1" xmlns="http://www.w3.org/2000/svg" xmlns:xlink="http://www.w3.org/1999/xlink" 
	 viewBox="0 0 512 512" xml:space="preserve">
<g transform="translate(1 1)">
	<path style="fill:#FCC309;" d="M394.715,441.576c0-29.505,7.81-60.746,18.224-67.688c0.868-0.868,0-1.736,0-1.736H153.468
		c-25.166,0-48.597,16.488-59.01,43.39c-15.62,44.258,12.149,86.78,47.729,86.78h275.959c0.868,0,0.868-0.868,0-1.736
		C409.468,494.512,394.715,470.214,394.715,441.576"/>
	<path style="fill:#FFFFFF;" d="M95.325,415.542c9.546-26.902,33.844-43.39,59.01-43.39h-16.488
		c-29.505,0-56.407,16.488-67.688,43.39c-19.092,44.258,13.017,86.78,54.671,86.78h17.356
		C106.607,502.322,78.837,459.8,95.325,415.542"/>
	<path style="fill:#FD9808;" d="M445.047,500.586c-11.281-6.075-28.637-30.373-28.637-59.01c0-29.505,9.546-60.746,21.695-67.688
		c0.868,0,0-1.736-0.868-1.736h-25.166c0.868,0,0.868,0.868,0,1.736c-10.414,6.942-18.224,38.183-18.224,67.688
		c0,28.637,14.753,52.936,25.166,59.01c0.868,0,0,1.736,0,1.736h26.034C445.047,502.322,445.915,501.454,445.047,500.586"/>
	<path style="fill:#FFDD09;" d="M412.071,7.678H157.807c-37.315,0-67.688,34.712-67.688,78.102v295.919v26.034
		c0-45.993,23.431-35.58,59.878-35.58h265.546c2.603,0,4.339-2.603,4.339-5.207V17.224C419.881,12.017,416.41,7.678,412.071,7.678"
		/>
	<path style="fill:#FFFFFF;" d="M90.119,85.78c0-43.39,30.373-78.102,67.688-78.102h-15.62c-43.39,0-78.102,34.712-78.102,78.102
		v329.763v26.034c0-19.959,9.546-40.786,26.034-53.803V85.78z"/>
	<path style="fill:#FD9808;" d="M436.37,7.678h-24.298c4.339,0,8.678,4.339,8.678,9.546v348.854c0,3.471-1.736,5.207-4.339,5.207
		h25.166c3.471,0,5.207-2.603,5.207-5.207V17.224C445.915,12.017,441.576,7.678,436.37,7.678"/>
	<path style="fill:#33A9F8;" d="M355.664,189.915H154.336c-11.281,0-20.827-9.546-20.827-20.827v-60.746
		c0-12.149,10.414-22.563,22.563-22.563h197.858c12.149,0,22.563,10.414,22.563,22.563v60.746
		C376.492,180.369,366.946,189.915,355.664,189.915"/>
	<path style="fill:#54C9FD;" d="M329.631,189.915H154.336c-11.281,0-20.827-9.546-20.827-20.827v-60.746
		c0-12.149,10.414-22.563,22.563-22.563h171.824c12.149,0,22.563,10.414,22.563,22.563v60.746
		C350.458,180.369,340.912,189.915,329.631,189.915"/>
	<path d="M445.047,511H124.831c-23.431,0-45.125-11.281-58.142-31.241s-14.753-44.258-5.207-67.688
		c12.149-29.505,42.522-48.597,76.366-48.597h299.39c4.339,0,7.81,2.603,9.546,6.942c0.868,4.339-0.868,8.678-4.339,10.414
		c-6.942,4.339-17.356,29.505-17.356,60.746c0,26.034,15.62,46.861,24.298,51.2c3.471,1.736,6.075,6.075,4.339,10.414
		C452.858,508.397,449.386,511,445.047,511z M440.708,508.397L440.708,508.397L440.708,508.397z M137.847,380.831
		c-26.902,0-50.332,14.753-59.878,38.183c-7.81,17.356-6.075,36.447,3.471,51.2c9.546,14.753,26.034,23.43,43.39,23.43h300.258
		c-9.546-12.149-17.356-30.373-17.356-52.068c0-20.827,4.339-45.125,13.017-60.746H137.847z"/>
	<path d="M72.763,441.576H55.407V85.78C55.407,38.051,94.458-1,142.186-1H436.37c10.414,0,18.224,8.678,18.224,18.224v348.854
		c0,7.81-6.075,13.885-13.885,13.885h-307.2C96.193,380.831,72.763,412.071,72.763,441.576z M142.186,16.356
		c-38.183,0-69.424,31.241-69.424,69.424v307.2c13.885-17.356,34.712-29.505,60.746-29.505h303.729V17.224c0,0,0-0.868-0.868-0.868
		H142.186z"/>
	<path d="M355.664,198.593H154.336c-16.488,0-29.505-13.017-29.505-29.505v-60.746c0-17.356,13.885-31.241,31.241-31.241h197.858
		c17.356,0,31.241,13.885,31.241,31.241v60.746C385.169,185.576,372.153,198.593,355.664,198.593z M156.071,94.458
		c-7.81,0-13.885,6.075-13.885,13.885v60.746c0,6.942,5.207,12.149,12.149,12.149h201.329c6.942,0,12.149-5.207,12.149-12.149
		v-60.746c0-7.81-6.075-13.885-13.885-13.885H156.071z"/>
	<path d="M298.39,129.169h-78.102c-5.207,0-8.678-3.471-8.678-8.678c0-5.207,3.471-8.678,8.678-8.678h78.102
		c5.207,0,8.678,3.471,8.678,8.678C307.068,125.698,303.597,129.169,298.39,129.169z"/>
	<path d="M324.424,163.881H185.576c-5.207,0-8.678-3.471-8.678-8.678c0-5.207,3.471-8.678,8.678-8.678h138.847
		c5.207,0,8.678,3.471,8.678,8.678C333.102,160.41,329.631,163.881,324.424,163.881z"/>
	<path d="M411.203,424.22H307.068c-5.207,0-8.678-3.471-8.678-8.678c0-5.207,3.471-8.678,8.678-8.678h104.136
		c5.207,0,8.678,3.471,8.678,8.678C419.881,420.749,416.41,424.22,411.203,424.22z"/>
	<path d="M411.203,467.61h-78.102c-5.207,0-8.678-3.471-8.678-8.678c0-5.207,3.471-8.678,8.678-8.678h78.102
		c5.207,0,8.678,3.471,8.678,8.678C419.881,464.139,416.41,467.61,411.203,467.61z"/>
</g>
</svg>
