<svg width="200" height="200" viewBox="0 0 200 200" fill="none" xmlns="http://www.w3.org/2000/svg">
<path d="M23 123C23 89.8629 49.8629 63 83 63H99.5H116C149.137 63 176 89.8629 176 123V168C176 173.523 171.523 178 166 178H33C27.4772 178 23 173.523 23 168V123Z" stroke="white" stroke-width="20"/>
<circle cx="70" cy="123" r="15" fill="white"/>
<circle cx="130" cy="123" r="15" fill="white"/>
<path d="M55.2075 14L68.2367 63.4556" stroke="white" stroke-width="20" stroke-linecap="round"/>
<path d="M144.237 14L131.208 63.4556" stroke="white" stroke-width="20" stroke-linecap="round"/>
<path d="M190 108C195.523 108 200 112.477 200 118L200 148C200 153.523 195.523 158 190 158L180 158L180 108L190 108Z" fill="white"/>
<path d="M10 111C4.47715 111 1.95703e-07 115.477 4.37114e-07 121L1.74846e-06 151C1.98987e-06 156.523 4.47716 161 10 161L20 161L20 111L10 111Z" fill="white"/>
</svg>
