<?xml version="1.0" encoding="UTF-8"?>
<svg version="1.1" xmlns="http://www.w3.org/2000/svg" width="106" height="136">
<path d="M0 0 C0.70523804 0.00404846 1.41047607 0.00809692 2.13708496 0.01226807 C2.8619812 0.01035461 3.58687744 0.00844116 4.33374023 0.00646973 C5.86698758 0.0051082 7.40024646 0.00880243 8.93347168 0.01715088 C11.28415755 0.02785129 13.63407919 0.01725498 15.98474121 0.00445557 C17.47302415 0.00577717 18.96130662 0.00833957 20.44958496 0.01226807 C21.154823 0.0082196 21.86006104 0.00417114 22.58666992 0 C27.56341011 0.04796821 27.56341011 0.04796821 29.79333496 2.27789307 C29.98864746 4.87945557 29.98864746 4.87945557 29.91833496 7.90289307 C29.90028809 8.90578369 29.88224121 9.90867432 29.86364746 10.94195557 C29.84044434 11.71281494 29.81724121 12.48367432 29.79333496 13.27789307 C31.77333496 13.27789307 33.75333496 13.27789307 35.79333496 13.27789307 C35.77013184 12.50703369 35.74692871 11.73617432 35.72302246 10.94195557 C35.70497559 9.93906494 35.68692871 8.93617432 35.66833496 7.90289307 C35.64513184 6.90515869 35.62192871 5.90742432 35.59802246 4.87945557 C35.79333496 2.27789307 35.79333496 2.27789307 37.79333496 0.27789307 C40.37397625 0.13291322 42.8427738 0.09111761 45.41833496 0.15289307 C46.12474121 0.1619165 46.83114746 0.17093994 47.55895996 0.18023682 C49.30389594 0.20381703 51.04865791 0.23968846 52.79333496 0.27789307 C53.28833496 1.76289307 53.28833496 1.76289307 53.79333496 3.27789307 C60.72333496 3.77289307 60.72333496 3.77289307 67.79333496 4.27789307 C67.46333496 5.59789307 67.13333496 6.91789307 66.79333496 8.27789307 C64.15333496 8.60789307 61.51333496 8.93789307 58.79333496 9.27789307 C58.79333496 10.26789307 58.79333496 11.25789307 58.79333496 12.27789307 C52.85333496 12.27789307 46.91333496 12.27789307 40.79333496 12.27789307 C40.79333496 9.63789307 40.79333496 6.99789307 40.79333496 4.27789307 C39.80333496 3.94789307 38.81333496 3.61789307 37.79333496 3.27789307 C37.79333496 6.90789307 37.79333496 10.53789307 37.79333496 14.27789307 C41.51514037 16.13879577 42.94082384 16.55117468 46.89099121 16.69195557 C47.85714355 16.73062744 48.8232959 16.76929932 49.81872559 16.80914307 C51.32209473 16.85554932 51.32209473 16.85554932 52.85583496 16.90289307 C53.86194824 16.94156494 54.86806152 16.98023682 55.90466309 17.02008057 C59.5363218 17.1559342 63.15895195 17.27789307 66.79333496 17.27789307 C68.11333496 17.27789307 69.43333496 17.27789307 70.79333496 17.27789307 C70.46333496 12.65789307 70.13333496 8.03789307 69.79333496 3.27789307 C65.50333496 2.94789307 61.21333496 2.61789307 56.79333496 2.27789307 C56.79333496 1.61789307 56.79333496 0.95789307 56.79333496 0.27789307 C59.08474783 0.22404786 61.37651684 0.18517219 63.66833496 0.15289307 C65.58259277 0.11808838 65.58259277 0.11808838 67.53552246 0.08258057 C70.79333496 0.27789307 70.79333496 0.27789307 72.79333496 2.27789307 C72.93841191 5.02274899 72.97985919 7.6626985 72.91833496 10.40289307 C72.90931152 11.15699463 72.90028809 11.91109619 72.89099121 12.68804932 C72.86740366 14.55146561 72.83153215 16.41471899 72.79333496 18.27789307 C72.15395996 18.54601807 71.51458496 18.81414307 70.85583496 19.09039307 C68.4620181 20.16457059 68.4620181 20.16457059 67.79333496 23.27789307 C63.91833496 22.40289307 63.91833496 22.40289307 62.79333496 21.27789307 C59.93065929 21.20464139 57.09261597 21.18551102 54.23083496 21.21539307 C53.02137207 21.22216064 53.02137207 21.22216064 51.78747559 21.22906494 C49.7893974 21.24088789 47.79135713 21.25882393 45.79333496 21.27789307 C45.82427246 21.91750977 45.85520996 22.55712646 45.88708496 23.21612549 C46.13746296 29.2232414 45.25843544 32.40194251 41.29333496 37.02789307 C38.06370865 39.71924833 34.17237476 39.72604039 30.15270996 39.69976807 C26.0678023 38.96935411 23.36920346 36.42873221 20.79333496 33.27789307 C19.83263062 30.39578005 19.68751613 28.57939263 19.73083496 25.59039307 C19.7398584 24.78215088 19.74888184 23.97390869 19.75817871 23.14117432 C19.76978027 22.5262915 19.78138184 21.91140869 19.79333496 21.27789307 C17.00141292 21.22408729 14.21052086 21.18431638 11.41833496 21.15289307 C10.62427246 21.13613525 9.83020996 21.11937744 9.01208496 21.10211182 C6.93841481 21.08453834 4.86450255 21.17454139 2.79333496 21.27789307 C2.13333496 21.93789307 1.47333496 22.59789307 0.79333496 23.27789307 C-1.33166504 22.90289307 -1.33166504 22.90289307 -3.20666504 22.27789307 C-3.20666504 21.61789307 -3.20666504 20.95789307 -3.20666504 20.27789307 C-4.52666504 19.61789307 -5.84666504 18.95789307 -7.20666504 18.27789307 C-7.2604861 15.65262118 -7.30024817 13.02844594 -7.33166504 10.40289307 C-7.34842285 9.65652588 -7.36518066 8.91015869 -7.38244629 8.14117432 C-7.40006094 6.18594845 -7.30986693 4.23047285 -7.20666504 2.27789307 C-4.74663717 -0.18213481 -3.35872665 0.03237302 0 0 Z " fill="#0B090A" transform="translate(22.2066650390625,35.72210693359375)"/>
<path d="M0 0 C3.49210267 2.04255062 5.36383424 3.29825659 6.78125 7.08984375 C7.31618883 9.39086739 7.69468858 11.65794004 8 14 C8.185625 15.258125 8.37125 16.51625 8.5625 17.8125 C8.706875 18.864375 8.85125 19.91625 9 21 C9.3403125 22.11375 9.3403125 22.11375 9.6875 23.25 C10 25 10 25 8 28 C8.66 28.66 9.32 29.32 10 30 C10.37890625 32.56640625 10.37890625 32.56640625 10.5625 35.5625 C10.49797212 39.09416808 10.49797212 39.09416808 12 42 C12.46975754 47.32391875 10.6623705 52.01288851 9 57 C1.08 57 -6.84 57 -15 57 C-15.99 54.03 -16.98 51.06 -18 48 C-18.33 47.67 -18.66 47.34 -19 47 C-19.125 44.5 -19.125 44.5 -19 42 C-18.505 41.505 -18.505 41.505 -18 41 C-17.75579878 38.22334163 -17.61611813 35.44783001 -17.4765625 32.6640625 C-16.95141021 29.72837512 -16.30376853 28.81098382 -14 27 C-14.99 26.34 -15.98 25.68 -17 25 C-16.62866752 22.11990907 -16.22906111 19.24860335 -15.8125 16.375 C-15.71130859 15.56675781 -15.61011719 14.75851563 -15.50585938 13.92578125 C-14.63884722 8.16132205 -13.16780088 5.10946463 -9 1 C-5.85088521 -0.57455739 -3.47991184 -0.34799118 0 0 Z " fill="#0C0A0B" transform="translate(83,59)"/>
<path d="M0 0 C3.54005659 2.07059914 5.36762518 3.32677859 6.81640625 7.16015625 C7.75699479 11.10010405 8.26188323 14.94080987 8 19 C7.38125 19.061875 6.7625 19.12375 6.125 19.1875 C3.73182415 19.82224359 3.73182415 19.82224359 2.8125 22.5 C2.544375 23.325 2.27625 24.15 2 25 C1.67 25.33 1.34 25.66 1 26 C2.670625 26.433125 2.670625 26.433125 4.375 26.875 C8 28 8 28 10 30 C10.37890625 32.56640625 10.37890625 32.56640625 10.5625 35.5625 C10.49797212 39.09416808 10.49797212 39.09416808 12 42 C12 47 12 47 8 57 C0.08 57 -7.84 57 -16 57 C-16.66 54.03 -17.32 51.06 -18 48 C-18.33 47.67 -18.66 47.34 -19 47 C-19.125 44.5 -19.125 44.5 -19 42 C-18.505 41.505 -18.505 41.505 -18 41 C-17.75579878 38.22334163 -17.61611813 35.44783001 -17.4765625 32.6640625 C-16.94520223 29.69367148 -16.45138655 28.7130866 -14 27 C-10.8125 26.8125 -10.8125 26.8125 -8 27 C-8.495 26.401875 -8.99 25.80375 -9.5 25.1875 C-11 23 -11 23 -11 20 C-12.32 19.67 -13.64 19.34 -15 19 C-14.88544319 17.08268082 -14.75793742 15.1661325 -14.625 13.25 C-14.55539063 12.18265625 -14.48578125 11.1153125 -14.4140625 10.015625 C-13.85446179 5.94004247 -13.02980109 3.82384087 -9.8125 1.25 C-6.18503256 -0.36220775 -3.93751167 -0.55263322 0 0 Z " fill="#25211F" transform="translate(34,59)"/>
<path d="M0 0 C3.62416894 1.64734952 6.12851416 3.45402683 8 7 C8.55685482 11.2957372 8.28425982 13.46193678 6.25 17.3125 C4.07120081 19.91495459 3.06742876 20.81333048 0 22 C-3.12303656 22.21443385 -5.99385827 21.87310734 -9 21 C-12.27012208 17.81163097 -13.85307964 15.27330979 -14.375 10.75 C-13.88072704 5.80727042 -12.46171699 4.46171699 -9 1 C-5.93570224 -0.53214888 -3.3834358 -0.22938548 0 0 Z " fill="#E869B4" transform="translate(58,51)"/>
<path d="M0 0 C2.64624284 0.14021805 5.29184578 0.28689776 7.9375 0.4375 C9.06961914 0.49647461 9.06961914 0.49647461 10.22460938 0.55664062 C15.88671875 0.88671875 15.88671875 0.88671875 17 2 C17.07271741 4.35313555 17.08370868 6.70833668 17.0625 9.0625 C17.05347656 10.35285156 17.04445312 11.64320312 17.03515625 12.97265625 C17.02355469 13.97167969 17.01195312 14.97070312 17 16 C15.02 16.66 13.04 17.32 11 18 C10.67 17.67 10.34 17.34 10 17 C8.41320309 16.87907623 6.82155746 16.82042676 5.23046875 16.7890625 C3.77350586 16.74652344 3.77350586 16.74652344 2.28710938 16.703125 C0.23259749 16.65134146 -1.82211592 16.60698263 -3.87695312 16.5703125 C-5.3397168 16.52390625 -5.3397168 16.52390625 -6.83203125 16.4765625 C-8.17358276 16.4468335 -8.17358276 16.4468335 -9.54223633 16.41650391 C-12.4666903 15.92091252 -13.87478287 15.04714918 -16 13 C-16.390625 10.30078125 -16.390625 10.30078125 -16.25 7.3125 C-16.21390625 6.31863281 -16.1778125 5.32476562 -16.140625 4.30078125 C-16.09421875 3.54152344 -16.0478125 2.78226563 -16 2 C-13.36 2 -10.72 2 -8 2 C-8 2.33 -8 2.66 -8 3 C-9.65 3 -11.3 3 -13 3 C-13 4.32 -13 5.64 -13 7 C-11.68 7.33 -10.36 7.66 -9 8 C-10.32 8 -11.64 8 -13 8 C-13 8.99 -13 9.98 -13 11 C-7.06 10.67 -1.12 10.34 5 10 C5 9.67 5 9.34 5 9 C2.03 8.67 -0.94 8.34 -4 8 C-4 7.67 -4 7.34 -4 7 C4.415 6.505 4.415 6.505 13 6 C13.33 5.01 13.66 4.02 14 3 C7.73 3 1.46 3 -5 3 C-5 2.67 -5 2.34 -5 2 C-3.35 2 -1.7 2 0 2 C0 1.34 0 0.68 0 0 Z " fill="#FCE77C" transform="translate(76,37)"/>
<path d="M0 0 C8.58 0 17.16 0 26 0 C26 0.99 26 1.98 26 3 C24.35 3 22.7 3 21 3 C21 3.66 21 4.32 21 5 C21.99 5 22.98 5 24 5 C23.67 7.64 23.34 10.28 23 13 C12.605 13.495 12.605 13.495 2 14 C2 11.03 2 8.06 2 5 C6.95 5 11.9 5 17 5 C17 4.34 17 3.68 17 3 C11.39 3 5.78 3 0 3 C0 2.01 0 1.02 0 0 Z " fill="#B87A62" transform="translate(67,102)"/>
<path d="M0 0 C8.58 0 17.16 0 26 0 C26 0.99 26 1.98 26 3 C20.39 3 14.78 3 9 3 C9 3.66 9 4.32 9 5 C13.95 5 18.9 5 24 5 C24 7.97 24 10.94 24 14 C17.07 13.67 10.14 13.34 3 13 C2.67 10.36 2.34 7.72 2 5 C2.99 5 3.98 5 5 5 C5 4.34 5 3.68 5 3 C3.35 3 1.7 3 0 3 C0 2.01 0 1.02 0 0 Z " fill="#B87A62" transform="translate(17,102)"/>
<path d="M0 0 C0.33 0 0.66 0 1 0 C1.10815225 1.76949095 1.18566083 3.54087487 1.25 5.3125 C1.29640625 6.29863281 1.3428125 7.28476562 1.390625 8.30078125 C1 11 1 11 -0.69921875 12.63671875 C-3.39836062 14.2360405 -5.08332286 14.42102683 -8.203125 14.51171875 C-9.1828125 14.54716797 -10.1625 14.58261719 -11.171875 14.61914062 C-12.18765625 14.64169922 -13.2034375 14.66425781 -14.25 14.6875 C-15.28125 14.72166016 -16.3125 14.75582031 -17.375 14.79101562 C-19.91655812 14.87338093 -22.45777626 14.94256834 -25 15 C-25.33 15.66 -25.66 16.32 -26 17 C-26.66 17 -27.32 17 -28 17 C-28 16.01 -28 15.02 -28 14 C-28.99 14 -29.98 14 -31 14 C-31 11.69 -31 9.38 -31 7 C-30.01 7.495 -30.01 7.495 -29 8 C-27.62451844 8.08308638 -26.24514204 8.10736016 -24.8671875 8.09765625 C-24.06152344 8.09443359 -23.25585938 8.09121094 -22.42578125 8.08789062 C-21.16314453 8.07532227 -21.16314453 8.07532227 -19.875 8.0625 C-18.60076172 8.05573242 -18.60076172 8.05573242 -17.30078125 8.04882812 C-15.20049091 8.03702874 -13.1002367 8.01909306 -11 8 C-11 7.67 -11 7.34 -11 7 C-15.29 6.67 -19.58 6.34 -24 6 C-23.67 5.34 -23.34 4.68 -23 4 C-16.07 4 -9.14 4 -2 4 C-1.34 2.68 -0.68 1.36 0 0 Z " fill="#96DF99" transform="translate(49,39)"/>
<path d="M0 0 C0.33 0.66 0.66 1.32 1 2 C-0.7015625 2.2165625 -0.7015625 2.2165625 -2.4375 2.4375 C-5.80777201 2.61171478 -5.80777201 2.61171478 -7 4 C-7.23287008 5.68183948 -7.41264166 7.3712416 -7.5625 9.0625 C-7.68818359 10.44115234 -7.68818359 10.44115234 -7.81640625 11.84765625 C-7.87699219 12.55792969 -7.93757813 13.26820312 -8 14 C-7.34 14 -6.68 14 -6 14 C-6 13.01 -6 12.02 -6 11 C-5.01 11 -4.02 11 -3 11 C-3 11.99 -3 12.98 -3 14 C1.29 14 5.58 14 10 14 C10 13.01 10 12.02 10 11 C10.66 11 11.32 11 12 11 C12 11.99 12 12.98 12 14 C12.99 14 13.98 14 15 14 C15 11.03 15 8.06 15 5 C15.66 4.67 16.32 4.34 17 4 C17.06058594 4.71027344 17.12117188 5.42054687 17.18359375 6.15234375 C17.30927734 7.53099609 17.30927734 7.53099609 17.4375 8.9375 C17.51871094 9.85402344 17.59992187 10.77054688 17.68359375 11.71484375 C17.76044976 13.96159732 17.76044976 13.96159732 19 15 C19.33144212 18.94278025 18.54098402 21.7008187 17 25.3125 C16.62875 26.19550781 16.2575 27.07851562 15.875 27.98828125 C15.441875 28.98408203 15.441875 28.98408203 15 30 C14.67 30 14.34 30 14 30 C14 27.03 14 24.06 14 21 C9.05 21 4.1 21 -1 21 C-1 20.34 -1 19.68 -1 19 C4.61 19 10.22 19 16 19 C16 18.01 16 17.02 16 16 C7.42 16 -1.16 16 -10 16 C-10 16.99 -10 17.98 -10 19 C-8.35 19 -6.7 19 -5 19 C-5 19.66 -5 20.32 -5 21 C-5.99 21 -6.98 21 -8 21 C-7.67 21.66 -7.34 22.32 -7 23 C-6.95977609 25.3329866 -6.95679753 27.66706666 -7 30 C-7.66 30 -8.32 30 -9 30 C-9.19916016 29.04287109 -9.19916016 29.04287109 -9.40234375 28.06640625 C-9.57894531 27.24011719 -9.75554688 26.41382812 -9.9375 25.5625 C-10.11152344 24.73878906 -10.28554688 23.91507813 -10.46484375 23.06640625 C-10.80752994 21.02338796 -10.80752994 21.02338796 -12 20 C-12.125 17.5 -12.125 17.5 -12 15 C-11.67 14.67 -11.34 14.34 -11 14 C-10.71602148 11.19176801 -10.55153335 8.38353365 -10.37890625 5.56640625 C-10 3 -10 3 -8 1 C-5.34462628 0.43479997 -2.70855287 0.26211802 0 0 Z " fill="#070606" transform="translate(27,86)"/>
<path d="M0 0 C1.29349365 0.00523682 2.5869873 0.01047363 3.91967773 0.01586914 C4.9496714 0.01799156 4.9496714 0.01799156 6.00047302 0.02015686 C8.20144949 0.0257706 10.40232557 0.03832532 12.60327148 0.05102539 C14.09220231 0.05603863 15.58113473 0.06060184 17.07006836 0.06469727 C20.72700223 0.07574446 24.38387707 0.09301826 28.04077148 0.11352539 C27.16577148 3.98852539 27.16577148 3.98852539 26.04077148 5.11352539 C24.48128606 5.27038788 22.91534481 5.36429178 21.34936523 5.42993164 C20.40512695 5.47182617 19.46088867 5.5137207 18.48803711 5.55688477 C16.99820313 5.61585937 16.99820313 5.61585937 15.47827148 5.67602539 C14.48118164 5.71920898 13.4840918 5.76239258 12.45678711 5.80688477 C9.98496038 5.91332707 7.51288489 6.01396298 5.04077148 6.11352539 C9.00077148 6.44352539 12.96077148 6.77352539 17.04077148 7.11352539 C17.04077148 8.10352539 17.04077148 9.09352539 17.04077148 10.11352539 C14.06154555 10.14036526 11.08255854 10.16028576 8.10327148 10.17602539 C6.82806641 10.18859375 6.82806641 10.18859375 5.52709961 10.20141602 C4.71821289 10.20463867 3.90932617 10.20786133 3.07592773 10.21118164 C2.32706299 10.21641846 1.57819824 10.22165527 0.80664062 10.22705078 C-0.95922852 10.11352539 -0.95922852 10.11352539 -1.95922852 9.11352539 C-2.28922852 11.09352539 -2.61922852 13.07352539 -2.95922852 15.11352539 C-3.28922852 15.11352539 -3.61922852 15.11352539 -3.95922852 15.11352539 C-3.98608263 12.80108747 -4.00555693 10.48856269 -4.02172852 8.17602539 C-4.03333008 6.88825195 -4.04493164 5.60047852 -4.05688477 4.27368164 C-3.92947641 0.15074718 -3.92947641 0.15074718 0 0 Z " fill="#5F8E60" transform="translate(20.959228515625,37.886474609375)"/>
<path d="M0 0 C3.08988584 0.10299619 5.74546939 0.50642017 8.75 1.125 C9.08 0.795 9.41 0.465 9.75 0.125 C13.1875 -0.0625 13.1875 -0.0625 16.75 0.125 C18.75 2.125 18.75 2.125 18.9453125 4.2890625 C18.92210938 5.10117188 18.89890625 5.91328125 18.875 6.75 C18.85695313 7.56726563 18.83890625 8.38453125 18.8203125 9.2265625 C18.79710938 9.85304688 18.77390625 10.47953125 18.75 11.125 C17.76 11.125 16.77 11.125 15.75 11.125 C15.75 10.135 15.75 9.145 15.75 8.125 C15.09 8.125 14.43 8.125 13.75 8.125 C13.75 9.115 13.75 10.105 13.75 11.125 C9.46 11.125 5.17 11.125 0.75 11.125 C0.75 10.135 0.75 9.145 0.75 8.125 C-0.24 8.125 -1.23 8.125 -2.25 8.125 C-2.25 9.115 -2.25 10.105 -2.25 11.125 C-2.91 11.125 -3.57 11.125 -4.25 11.125 C-4.27688151 9.47925434 -4.29634123 7.83338587 -4.3125 6.1875 C-4.32410156 5.27097656 -4.33570312 4.35445313 -4.34765625 3.41015625 C-4.19294746 -0.21002939 -3.72142836 0.14313186 0 0 Z " fill="#ABD0F3" transform="translate(23.25,88.875)"/>
<path d="M0 0 C0.33 0.66 0.66 1.32 1 2 C4.27555608 2.47001033 4.27555608 2.47001033 8.0625 2.625 C9.99802734 2.73714844 9.99802734 2.73714844 11.97265625 2.8515625 C13.47119141 2.92503906 13.47119141 2.92503906 15 3 C14.67 4.32 14.34 5.64 14 7 C11.36 7.33 8.72 7.66 6 8 C6 8.99 6 9.98 6 11 C0.06 11 -5.88 11 -12 11 C-12 8.36 -12 5.72 -12 3 C-12.66 2.34 -13.32 1.68 -14 1 C-9.38 0.67 -4.76 0.34 0 0 Z " fill="#686033" transform="translate(75,37)"/>
<path d="M0 0 C3 1 3 1 4.25 3.0625 C5.96226588 5.38228992 5.96226588 5.38228992 9.5 5.4375 C12.91046621 5.29958047 12.91046621 5.29958047 14.875 3.625 C16.06481812 1.98821489 16.06481812 1.98821489 17 0 C18.32 0.33 19.64 0.66 21 1 C21 4.3 21 7.6 21 11 C19.68 11 18.36 11 17 11 C17 10.01 17 9.02 17 8 C16.34 8 15.68 8 15 8 C15 8.99 15 9.98 15 11 C11.37 11 7.74 11 4 11 C4 10.01 4 9.02 4 8 C3.34 8 2.68 8 2 8 C2 8.99 2 9.98 2 11 C0.68 11 -0.64 11 -2 11 C-2.05399736 9.54207116 -2.09279177 8.08357288 -2.125 6.625 C-2.15980469 5.40683594 -2.15980469 5.40683594 -2.1953125 4.1640625 C-2 2 -2 2 0 0 Z " fill="#C6A2DA" transform="translate(70,89)"/>
<path d="M0 0 C0.66 0 1.32 0 2 0 C2 0.99 2 1.98 2 3 C8.93 3.33 15.86 3.66 23 4 C23 9.54532413 21.73579212 13.79262365 20 19 C19.34 19 18.68 19 18 19 C17.875 12.25 17.875 12.25 19 10 C18.01 10 17.02 10 16 10 C16 9.34 16 8.68 16 8 C17.65 8 19.3 8 21 8 C21 7.01 21 6.02 21 5 C12.42 5 3.84 5 -5 5 C-5 5.99 -5 6.98 -5 8 C0.61 8 6.22 8 12 8 C12 8.66 12 9.32 12 10 C7.05 10 2.1 10 -3 10 C-3 12.97 -3 15.94 -3 19 C-3.66 18.67 -4.32 18.34 -5 18 C-5.59765625 16.1875 -5.59765625 16.1875 -6.0625 14 C-6.51706623 11.22885123 -6.51706623 11.22885123 -8 9 C-8.04063832 7.33382885 -8.042721 5.66611905 -8 4 C-5.64561267 2.57055055 -4.51967567 1.91338739 -1.75 2.375 C-0.88375 2.684375 -0.88375 2.684375 0 3 C0 2.01 0 1.02 0 0 Z " fill="#181414" transform="translate(72,97)"/>
<path d="M0 0 C3.70180585 0.5195517 5.62547402 1.23429424 8.5625 3.5 C10.5625 6.5 10.5625 6.5 10.1875 8.6875 C9.878125 9.5846875 9.878125 9.5846875 9.5625 10.5 C9.2325 9.51 8.9025 8.52 8.5625 7.5 C6.9125 7.5 5.2625 7.5 3.5625 7.5 C3.2325 8.82 2.9025 10.14 2.5625 11.5 C3.8825 12.16 5.2025 12.82 6.5625 13.5 C6.5625 14.16 6.5625 14.82 6.5625 15.5 C4.9125 15.17 3.2625 14.84 1.5625 14.5 C1.8925 15.82 2.2225 17.14 2.5625 18.5 C0.5825 18.83 -1.3975 19.16 -3.4375 19.5 C-2.4475 15.54 -1.4575 11.58 -0.4375 7.5 C-1.7575 8.82 -3.0775 10.14 -4.4375 11.5 C-5.4275 9.52 -6.4175 7.54 -7.4375 5.5 C-5.19398957 1.91038331 -4.2879803 0.62370623 0 0 Z " fill="#F389C9" transform="translate(54.4375,50.5)"/>
<path d="M0 0 C2.78153225 1.37246657 3.86492728 2.55247761 6 5 C6.375 8.8125 6.375 8.8125 6 12 C4 9 4 9 2.8125 6.375 C1.11266874 3.68611248 1.11266874 3.68611248 -2.375 2.875 C-6.10934878 2.66120957 -6.10934878 2.66120957 -8.875 5.125 C-10.95938703 7.94505304 -11.70473074 9.55519195 -12 13 C-10.741875 12.608125 -9.48375 12.21625 -8.1875 11.8125 C-5.98046875 11.24609375 -5.98046875 11.24609375 -4 11 C-2 12.375 -2 12.375 -1 14 C-3.70879335 15.35439668 -6.00933268 15.06501451 -9 15 C-9 17.97 -9 20.94 -9 24 C-9.66 23.67 -10.32 23.34 -11 23 C-11 22.01 -11 21.02 -11 20 C-12.32 19.67 -13.64 19.34 -15 19 C-14.88544319 17.08268082 -14.75793742 15.1661325 -14.625 13.25 C-14.55539063 12.18265625 -14.48578125 11.1153125 -14.4140625 10.015625 C-13.85446179 5.94004247 -13.02980109 3.82384087 -9.8125 1.25 C-6.18503256 -0.36220775 -3.93751167 -0.55263322 0 0 Z " fill="#0F0F0F" transform="translate(34,59)"/>
<path d="M0 0 C3.56034034 2.08246322 5.37944269 3.33132435 6.81640625 7.1953125 C7.69220838 10.9067537 8 14.16813284 8 18 C7.34 18 6.68 18 6 18 C6 17.01 6 16.02 6 15 C5.01 15.33 4.02 15.66 3 16 C-1.0908717 15.61039317 -5.04627033 15.15317115 -9 14 C-8.67 13.01 -8.34 12.02 -8 11 C-3.31034294 9.88341499 -0.46236469 10.19380477 4 12 C3.10263912 7.21649916 3.10263912 7.21649916 0.25 3.5 C-2.78081896 2.82648468 -5.01210343 3.22054872 -8 4 C-10.76223278 6.76223278 -10.57856291 9.20706617 -11 13 C-11.99 13.33 -12.98 13.66 -14 14 C-14.59865471 8.01345291 -14.59865471 8.01345291 -12.95703125 5.234375 C-8.87265678 0.29958825 -6.37080181 -0.63708018 0 0 Z " fill="#151620" transform="translate(83,59)"/>
<path d="M0 0 C2.29141286 -0.05384521 4.58318188 -0.09272087 6.875 -0.125 C8.78925781 -0.15980469 8.78925781 -0.15980469 10.7421875 -0.1953125 C14 0 14 0 16 2 C16.14507695 4.74485593 16.18652423 7.38480543 16.125 10.125 C16.11597656 10.87910156 16.10695313 11.63320313 16.09765625 12.41015625 C16.0740687 14.27357254 16.03819719 16.13682593 16 18 C15.360625 18.268125 14.72125 18.53625 14.0625 18.8125 C11.66868314 19.88667752 11.66868314 19.88667752 11 23 C7.125 22.125 7.125 22.125 6 21 C2.1744083 20.79647098 -1.64470782 20.65286619 -5.47460938 20.5703125 C-6.27576172 20.539375 -7.07691406 20.5084375 -7.90234375 20.4765625 C-8.63960693 20.45674316 -9.37687012 20.43692383 -10.13647461 20.41650391 C-12 20 -12 20 -14 17 C-4.66666667 17 4.66666667 17 14 17 C13.67 12.38 13.34 7.76 13 3 C8.71 2.67 4.42 2.34 0 2 C0 1.34 0 0.68 0 0 Z " fill="#494532" transform="translate(79,36)"/>
<path d="M0 0 C1.9375 1.125 1.9375 1.125 3 3 C3.1875 6.6875 3.1875 6.6875 3 10 C2.34 10 1.68 10 1 10 C0.67 9.34 0.34 8.68 0 8 C-0.90492187 8.2165625 -0.90492187 8.2165625 -1.828125 8.4375 C-2.62734375 8.623125 -3.4265625 8.80875 -4.25 9 C-5.03890625 9.185625 -5.8278125 9.37125 -6.640625 9.5625 C-9 10 -9 10 -13 10 C-12.76583445 5.94113045 -12.54687839 3.64338634 -9.875 0.5 C-6.08386986 -1.47798094 -4.07202027 -1.13111674 0 0 Z " fill="#8C84BE" transform="translate(35,62)"/>
<path d="M0 0 C1.9375 1.1875 1.9375 1.1875 3 3 C3.1875 6.1875 3.1875 6.1875 3 9 C1.02 9 -0.96 9 -3 9 C-3 8.34 -3 7.68 -3 7 C-3.556875 7.309375 -4.11375 7.61875 -4.6875 7.9375 C-7.12540433 9.05761821 -9.36224186 9.56037364 -12 10 C-12.3125 6.75 -12.3125 6.75 -12 3 C-8.31376997 -1.46815761 -5.41712863 -1.50475795 0 0 Z " fill="#4A60C4" transform="translate(84,62)"/>
<path d="M0 0 C0.66 0.33 1.32 0.66 2 1 C1.01 2.32 0.02 3.64 -1 5 C-0.01 6.32 0.98 7.64 2 9 C2.66 7.68 3.32 6.36 4 5 C4.66 5.66 5.32 6.32 6 7 C5.01 10.3 4.02 13.6 3 17 C1.35 17.33 -0.3 17.66 -2 18 C-4.978043 13.90519087 -5.70660778 11.03458041 -5 6 C-3.53308478 3.67738423 -1.93709106 1.98551834 0 0 Z " fill="#E282BB" transform="translate(49,52)"/>
<path d="M0 0 C1.38594529 0.00031696 2.77191535 0.01163319 4.15771484 0.03173828 C4.88735443 0.03456818 5.61699402 0.03739807 6.3687439 0.04031372 C8.70221262 0.05152076 11.03529937 0.07662568 13.36865234 0.10205078 C14.94937597 0.11207993 16.53010561 0.1212059 18.11083984 0.12939453 C21.98859149 0.15146173 25.86605712 0.18599463 29.74365234 0.22705078 C29.74365234 1.21705078 29.74365234 2.20705078 29.74365234 3.22705078 C19.18365234 3.22705078 8.62365234 3.22705078 -2.25634766 3.22705078 C-2.25634766 8.17705078 -2.25634766 13.12705078 -2.25634766 18.22705078 C-3.24634766 18.22705078 -4.23634766 18.22705078 -5.25634766 18.22705078 C-5.31016872 15.60177889 -5.34993078 12.97760365 -5.38134766 10.35205078 C-5.39810547 9.60568359 -5.41486328 8.85931641 -5.43212891 8.09033203 C-5.44974355 6.13510617 -5.35954955 4.17963057 -5.25634766 2.22705078 C-3.25634766 0.22705078 -3.25634766 0.22705078 0 0 Z " fill="#010101" transform="translate(20.25634765625,35.77294921875)"/>
<path d="M0 0 C0.43562684 3.33980581 0.32511563 5.34976874 -1.1875 8.375 C-3 10 -3 10 -5.5 10.5 C-8 10 -8 10 -9.8125 8.375 C-11.28601103 5.42797793 -11.22179212 3.25295114 -11 0 C-3.375 -2.25 -3.375 -2.25 0 0 Z " fill="#FCCFA1" transform="translate(36,74)"/>
<path d="M0 0 C0.22179212 3.25295114 0.28601103 5.42797793 -1.1875 8.375 C-3 10 -3 10 -5.5 10.5 C-8 10 -8 10 -9.8125 8.375 C-11.28601103 5.42797793 -11.22179212 3.25295114 -11 0 C-7.18243176 -1.37432457 -3.92744671 -0.67975039 0 0 Z " fill="#F5C99C" transform="translate(85,74)"/>
<path d="M0 0 C0.66 0.66 1.32 1.32 2 2 C5.08347826 2.16681109 5.08347826 2.16681109 8 2 C7.67 2.99 7.34 3.98 7 5 C13.93 5.495 13.93 5.495 21 6 C21 6.99 21 7.98 21 9 C18.02077407 9.02683987 15.04178705 9.04676037 12.0625 9.0625 C10.78729492 9.07506836 10.78729492 9.07506836 9.48632812 9.08789062 C8.67744141 9.09111328 7.86855469 9.09433594 7.03515625 9.09765625 C6.2862915 9.10289307 5.53742676 9.10812988 4.76586914 9.11352539 C3 9 3 9 2 8 C1.67 9.98 1.34 11.96 1 14 C0.67 14 0.34 14 0 14 C0 9.38 0 4.76 0 0 Z " fill="#324B33" transform="translate(17,39)"/>
<path d="M0 0 C8.58 0 17.16 0 26 0 C26 0.99 26 1.98 26 3 C20.02842601 3.92449827 14.51758541 3.9888273 8.5 3.5625 C7.67757812 3.51029297 6.85515625 3.45808594 6.0078125 3.40429688 C4.00477101 3.27619538 2.00231129 3.13904939 0 3 C0 2.01 0 1.02 0 0 Z " fill="#BF9383" transform="translate(67,102)"/>
<path d="M0 0 C8.58 0 17.16 0 26 0 C26 0.99 26 1.98 26 3 C22.79224458 3.19840395 19.58379499 3.38175425 16.375 3.5625 C15.47136719 3.61857422 14.56773438 3.67464844 13.63671875 3.73242188 C8.91943783 3.99066718 4.65068353 4.04292737 0 3 C0 2.01 0 1.02 0 0 Z " fill="#B28677" transform="translate(17,102)"/>
<path d="M0 0 C0.33 0 0.66 0 1 0 C1.22822613 3.95829688 0.55050009 6.67851541 -1 10.3125 C-1.37125 11.19550781 -1.7425 12.07851562 -2.125 12.98828125 C-2.41375 13.65214844 -2.7025 14.31601563 -3 15 C-3.33 15 -3.66 15 -4 15 C-4 12.03 -4 9.06 -4 6 C-8.95 6 -13.9 6 -19 6 C-19 5.34 -19 4.68 -19 4 C-13.39 4 -7.78 4 -2 4 C-1.67 3.01 -1.34 2.02 -1 1 C-0.67 0.67 -0.34 0.34 0 0 Z " fill="#0E0A09" transform="translate(45,101)"/>
<path d="M0 0 C0.99 0 1.98 0 3 0 C3 0.99 3 1.98 3 3 C3.66 3 4.32 3 5 3 C5.33 2.01 5.66 1.02 6 0 C12.93 0 19.86 0 27 0 C25 3 25 3 23.15234375 3.40063477 C22.05599609 3.42081665 22.05599609 3.42081665 20.9375 3.44140625 C20.14085938 3.46783203 19.34421875 3.49425781 18.5234375 3.52148438 C17.69070312 3.53501953 16.85796875 3.54855469 16 3.5625 C14.35396525 3.59689856 12.70807517 3.63948276 11.0625 3.69140625 C10.33160156 3.70373291 9.60070312 3.71605957 8.84765625 3.72875977 C6.75367663 3.84838721 6.75367663 3.84838721 5 6 C2.875 5.625 2.875 5.625 1 5 C1 4.34 1 3.68 1 3 C0.34 3 -0.32 3 -1 3 C-0.67 2.01 -0.34 1.02 0 0 Z " fill="#374439" transform="translate(18,53)"/>
<path d="M0 0 C0.66 0 1.32 0 2 0 C2 1.32 2 2.64 2 4 C7.94 4 13.88 4 20 4 C20 4.66 20 5.32 20 6 C15.05 6 10.1 6 5 6 C5 8.97 5 11.94 5 15 C4.34 14.67 3.68 14.34 3 14 C2.40234375 12.1875 2.40234375 12.1875 1.9375 10 C1.48293377 7.22885123 1.48293377 7.22885123 0 5 C-0.04063832 3.33382885 -0.042721 1.66611905 0 0 Z " fill="#120F0E" transform="translate(64,101)"/>
<path d="M0 0 C2.64 0 5.28 0 8 0 C8 0.33 8 0.66 8 1 C6.35 1 4.7 1 3 1 C3 2.32 3 3.64 3 5 C4.32 5.33 5.64 5.66 7 6 C5.68 6 4.36 6 3 6 C3 6.99 3 7.98 3 9 C3.61875 9.0825 4.2375 9.165 4.875 9.25 C7 10 7 10 8.25 12.0625 C8.4975 12.701875 8.745 13.34125 9 14 C6.12823415 14.23931382 4.41059083 14.22017189 1.84375 12.84375 C0 11 0 11 -0.390625 8.30078125 C-0.34421875 7.31464844 -0.2978125 6.32851563 -0.25 5.3125 C-0.21390625 4.31863281 -0.1778125 3.32476562 -0.140625 2.30078125 C-0.09421875 1.54152344 -0.0478125 0.78226563 0 0 Z " fill="#E2C835" transform="translate(60,39)"/>
<path d="M0 0 C2.29141286 -0.05384521 4.58318188 -0.09272087 6.875 -0.125 C8.78925781 -0.15980469 8.78925781 -0.15980469 10.7421875 -0.1953125 C14 0 14 0 16 2 C16.14507695 4.74485593 16.18652423 7.38480543 16.125 10.125 C16.11597656 10.87910156 16.10695313 11.63320313 16.09765625 12.41015625 C16.0740687 14.27357254 16.03819719 16.13682593 16 18 C15.34 18 14.68 18 14 18 C13.67 13.05 13.34 8.1 13 3 C8.71 2.67 4.42 2.34 0 2 C0 1.34 0 0.68 0 0 Z " fill="#050505" transform="translate(79,36)"/>
<path d="M0 0 C1.32 0 2.64 0 4 0 C4 0.99 4 1.98 4 3 C4.66 3 5.32 3 6 3 C7.4606285 5.64738916 8 6.89448334 8 10 C4.7 10.66 1.4 11.32 -2 12 C-1.01 10.68 -0.02 9.36 1 8 C0.67 7.34 0.34 6.68 0 6 C-0.039992 4.00039988 -0.04346799 1.99952758 0 0 Z " fill="#261F1C" transform="translate(85,74)"/>
<path d="M0 0 C2.64624284 0.14021805 5.29184578 0.28689776 7.9375 0.4375 C9.06961914 0.49647461 9.06961914 0.49647461 10.22460938 0.55664062 C15.88671875 0.88671875 15.88671875 0.88671875 17 2 C17.07271741 4.35313555 17.08370868 6.70833668 17.0625 9.0625 C17.05347656 10.35285156 17.04445313 11.64320312 17.03515625 12.97265625 C17.02355469 13.97167969 17.01195313 14.97070312 17 16 C16.67 16 16.34 16 16 16 C15.93941406 15.21753906 15.87882812 14.43507813 15.81640625 13.62890625 C15.69072266 12.11103516 15.69072266 12.11103516 15.5625 10.5625 C15.48128906 9.55316406 15.40007812 8.54382813 15.31640625 7.50390625 C15.26788532 5.06359221 15.26788532 5.06359221 14 4 C12.58672053 3.84379445 11.1664541 3.74943827 9.74609375 3.68359375 C8.89208984 3.64169922 8.03808594 3.59980469 7.15820312 3.55664062 C6.26037109 3.51732422 5.36253906 3.47800781 4.4375 3.4375 C3.53580078 3.39431641 2.63410156 3.35113281 1.70507812 3.30664062 C-0.52978485 3.20021858 -2.76476308 3.09820012 -5 3 C-5 2.67 -5 2.34 -5 2 C-3.35 2 -1.7 2 0 2 C0 1.34 0 0.68 0 0 Z " fill="#D0BE66" transform="translate(76,37)"/>
<path d="M0 0 C1.91423658 0.81210037 3.52072017 1.52072017 5 3 C6.48638992 3.15655027 7.97949127 3.25066943 9.47265625 3.31640625 C10.82133789 3.37924805 10.82133789 3.37924805 12.19726562 3.44335938 C13.61555664 3.50233398 13.61555664 3.50233398 15.0625 3.5625 C16.01189453 3.60568359 16.96128906 3.64886719 17.93945312 3.69335938 C20.29281353 3.79979276 22.64628354 3.90181008 25 4 C25 4.33 25 4.66 25 5 C19.06 5 13.12 5 7 5 C7.33 5.66 7.66 6.32 8 7 C8.04022391 9.3329866 8.04320247 11.66706666 8 14 C7.34 14 6.68 14 6 14 C5.731875 12.9275 5.46375 11.855 5.1875 10.75 C3.64228088 5.87036068 2.22999351 3.81999568 -2 1 C-1.34 0.67 -0.68 0.34 0 0 Z " fill="#0D0909" transform="translate(60,50)"/>
<path d="M0 0 C0.33 0 0.66 0 1 0 C1.495 6.93 1.495 6.93 2 14 C1.34 13.34 0.68 12.68 0 12 C-2.22658154 11.62995706 -2.22658154 11.62995706 -4.7890625 11.5859375 C-6.20058594 11.52792969 -6.20058594 11.52792969 -7.640625 11.46875 C-8.62546875 11.4378125 -9.6103125 11.406875 -10.625 11.375 C-11.61757813 11.33632812 -12.61015625 11.29765625 -13.6328125 11.2578125 C-16.08835385 11.1633686 -18.5438841 11.07780125 -21 11 C-21 10.67 -21 10.34 -21 10 C-16.05 10 -11.1 10 -6 10 C-6 9.01 -6 8.02 -6 7 C-5.34 7 -4.68 7 -4 7 C-4 7.99 -4 8.98 -4 10 C-3.01 10 -2.02 10 -1 10 C-1.01160156 9.36191406 -1.02320312 8.72382812 -1.03515625 8.06640625 C-1.04417969 7.24011719 -1.05320312 6.41382812 -1.0625 5.5625 C-1.07410156 4.73878906 -1.08570312 3.91507812 -1.09765625 3.06640625 C-1 1 -1 1 0 0 Z " fill="#040405" transform="translate(43,90)"/>
<path d="M0 0 C2.79066464 1.3558131 3.86600558 2.55371372 6 5 C6.375 8.8125 6.375 8.8125 6 12 C4 9 4 9 2.8125 6.375 C1.12559364 3.66917792 1.12559364 3.66917792 -2.375 3.0625 C-5.92107457 3.00136078 -7.8850646 3.39533631 -11 5 C-8.52945001 -0.47050356 -5.92008115 -0.59200811 0 0 Z " fill="#0D0D0F" transform="translate(34,59)"/>
<path d="M0 0 C0.2475 0.61875 0.495 1.2375 0.75 1.875 C2.20628639 4.35068687 3.37812506 4.95125002 6 6 C6 6.66 6 7.32 6 8 C4.35 7.67 2.7 7.34 1 7 C1.33 8.32 1.66 9.64 2 11 C0.02 11.33 -1.96 11.66 -4 12 C-3.52494322 10.18641846 -3.04483958 8.37415821 -2.5625 6.5625 C-2.29566406 5.55316406 -2.02882812 4.54382812 -1.75390625 3.50390625 C-1 1 -1 1 0 0 Z " fill="#E582BD" transform="translate(55,58)"/>
<path d="M0 0 C1.67542976 0.28604898 3.34385343 0.61781233 5 1 C5 1.66 5 2.32 5 3 C4.01 3.33 3.02 3.66 2 4 C2.99 4.66 3.98 5.32 5 6 C4.67 7.65 4.34 9.3 4 11 C2.35 11 0.7 11 -1 11 C-1.33 10.01 -1.66 9.02 -2 8 C0.475 8.495 0.475 8.495 3 9 C1.74458443 6.48916886 0.49936512 6.12874554 -2 5 C-1.125 1.125 -1.125 1.125 0 0 Z " fill="#0C070A" transform="translate(58,57)"/>
<path d="M0 0 C1.32 0.33 2.64 0.66 4 1 C4 4.3 4 7.6 4 11 C2.68 11 1.36 11 0 11 C0 10.01 0 9.02 0 8 C-0.66 7.67 -1.32 7.34 -2 7 C-1.34 7 -0.68 7 0 7 C-0.2784375 5.824375 -0.2784375 5.824375 -0.5625 4.625 C-1 2 -1 2 0 0 Z " fill="#BA8CD2" transform="translate(87,89)"/>
<path d="M0 0 C1.32 1.32 2.64 2.64 4 4 C4.66 2.68 5.32 1.36 6 0 C6.66 0.66 7.32 1.32 8 2 C7.01 4.97 6.02 7.94 5 11 C4.01 10.67 3.02 10.34 2 10 C0.47839986 6.3962102 0 3.94779314 0 0 Z " fill="#120A0F" transform="translate(47,57)"/>
<path d="M0 0 C0.33 0 0.66 0 1 0 C1.10815225 1.76949095 1.18566083 3.54087487 1.25 5.3125 C1.29640625 6.29863281 1.3428125 7.28476562 1.390625 8.30078125 C1 11 1 11 -0.84375 12.84375 C-3.41059083 14.22017189 -5.12823415 14.23931382 -8 14 C-6.89075968 11.07563915 -6.28680146 10.14689831 -3.4375 8.6875 C-0.58889413 7.12431318 -0.58889413 7.12431318 -0.1875 3.3125 C-0.125625 2.219375 -0.06375 1.12625 0 0 Z " fill="#69C391" transform="translate(49,39)"/>
<path d="M0 0 C2.0625 0.4375 2.0625 0.4375 4 1 C3.938125 2.0725 3.87625 3.145 3.8125 4.25 C4.00543309 8.10866187 4.39665076 9.28817788 7 12 C1.41121495 10.54205607 1.41121495 10.54205607 -0.375 8.1875 C-1.09321991 5.67373033 -1.21096851 3.601945 -1 1 C-0.67 0.67 -0.34 0.34 0 0 Z " fill="#33261E" transform="translate(69,74)"/>
<path d="M0 0 C0.66 0.33 1.32 0.66 2 1 C1.67 1.66 1.34 2.32 1 3 C0.9283265 5.55157655 0.90691558 8.07472971 0.9375 10.625 C0.94426758 11.68460938 0.94426758 11.68460938 0.95117188 12.765625 C0.96296125 14.51045275 0.98089676 16.255237 1 18 C0.01 18 -0.98 18 -2 18 C-2.05382106 15.37472811 -2.09358313 12.75055287 -2.125 10.125 C-2.14175781 9.37863281 -2.15851562 8.63226563 -2.17578125 7.86328125 C-2.1933959 5.90805539 -2.10320189 3.95257979 -2 2 C-1.34 1.34 -0.68 0.68 0 0 Z " fill="#080808" transform="translate(17,36)"/>
<path d="M0 0 C1.98 0.99 1.98 0.99 4 2 C4 4.97 4 7.94 4 11 C3.01 11 2.02 11 1 11 C-0.28317892 7.15046324 -0.06643637 4.05261865 0 0 Z " fill="#80B9E9" transform="translate(38,89)"/>
<path d="M0 0 C0.99 0 1.98 0 3 0 C3 0.99 3 1.98 3 3 C3.99 3 4.98 3 6 3 C5.34 4.32 4.68 5.64 4 7 C1.03 6.505 1.03 6.505 -2 6 C-2.33 5.01 -2.66 4.02 -3 3 C-2.01 3 -1.02 3 0 3 C0 2.01 0 1.02 0 0 Z " fill="#E9A066" transform="translate(78,86)"/>
<path d="M0 0 C0.99 0.66 1.98 1.32 3 2 C3.43562684 5.33980581 3.32511563 7.34976874 1.8125 10.375 C0 12 0 12 -2.6875 12.25 C-3.450625 12.1675 -4.21375 12.085 -5 12 C-4.01 11.67 -3.02 11.34 -2 11 C-1.19436362 8.89415562 -1.19436362 8.89415562 -0.8125 6.4375 C-0.65394531 5.61121094 -0.49539062 4.78492187 -0.33203125 3.93359375 C-0.22246094 3.29550781 -0.11289062 2.65742187 0 2 C-0.66 1.67 -1.32 1.34 -2 1 C-1.34 0.67 -0.68 0.34 0 0 Z " fill="#DFA677" transform="translate(33,72)"/>
<path d="M0 0 C0.99 0 1.98 0 3 0 C3 0.99 3 1.98 3 3 C9.27 3.33 15.54 3.66 22 4 C22 4.33 22 4.66 22 5 C13.75 5 5.5 5 -3 5 C-2.67 4.34 -2.34 3.68 -2 3 C-1.34 3 -0.68 3 0 3 C0 2.01 0 1.02 0 0 Z " fill="#191616" transform="translate(21,97)"/>
<path d="M0 0 C8.58 0 17.16 0 26 0 C26 0.99 26 1.98 26 3 C24.35 3 22.7 3 21 3 C21 2.67 21 2.34 21 2 C14.07 1.67 7.14 1.34 0 1 C0 0.67 0 0.34 0 0 Z " fill="#B98A7A" transform="translate(67,102)"/>
<path d="M0 0 C1.98 0 3.96 0 6 0 C6 2.97 6 5.94 6 9 C5.34 8.67 4.68 8.34 4 8 C4 7.01 4 6.02 4 5 C2.68 4.67 1.36 4.34 0 4 C0 2.68 0 1.36 0 0 Z " fill="#261C14" transform="translate(19,74)"/>
<path d="M0 0 C0.99 0 1.98 0 3 0 C3.22179212 3.25295114 3.28601103 5.42797793 1.8125 8.375 C0 10 0 10 -2.6875 10.25 C-3.450625 10.1675 -4.21375 10.085 -5 10 C-4.360625 9.46375 -3.72125 8.9275 -3.0625 8.375 C-0.61470596 5.55632807 -0.33285388 3.66139268 0 0 Z " fill="#EBAF7D" transform="translate(82,74)"/>
<path d="M0 0 C2.86724686 0.57344937 3.8614515 0.8614515 6 3 C6.125 6.625 6.125 6.625 6 10 C5.34 10 4.68 10 4 10 C2.375 8 2.375 8 1 6 C1.66 6 2.32 6 3 6 C2.01 4.02 1.02 2.04 0 0 Z " fill="#776EAF" transform="translate(32,62)"/>
<path d="M0 0 C0.33 0.66 0.66 1.32 1 2 C1.99 2 2.98 2 4 2 C3.67 4.64 3.34 7.28 3 10 C1.68 9.67 0.36 9.34 -1 9 C-0.67 6.03 -0.34 3.06 0 0 Z " fill="#9D634C" transform="translate(87,105)"/>
<path d="M0 0 C0.99 0 1.98 0 3 0 C3 2.97 3 5.94 3 9 C1.68 8.67 0.36 8.34 -1 8 C-0.67 5.36 -0.34 2.72 0 0 Z " fill="#9E654F" transform="translate(38,107)"/>
<path d="M0 0 C7.26 0 14.52 0 22 0 C22 0.33 22 0.66 22 1 C19.75013201 1.16843931 17.50009983 1.33468654 15.25 1.5 C13.99703125 1.5928125 12.7440625 1.685625 11.453125 1.78125 C6.66990657 2.08425931 4.38173352 2.19086676 0 0 Z " fill="#D1A08F" transform="translate(18,103)"/>
<path d="M0 0 C2.86724686 0.57344937 3.8614515 0.8614515 6 3 C6.125 6.125 6.125 6.125 6 9 C5.01 9 4.02 9 3 9 C2.690625 7.88625 2.38125 6.7725 2.0625 5.625 C1.17673517 2.2054845 1.17673517 2.2054845 0 0 Z " fill="#304BC2" transform="translate(81,62)"/>
<path d="M0 0 C0.33 0.66 0.66 1.32 1 2 C-0.7015625 2.2165625 -0.7015625 2.2165625 -2.4375 2.4375 C-5.80777201 2.61171478 -5.80777201 2.61171478 -7 4 C-7.23287008 5.68183948 -7.41264166 7.3712416 -7.5625 9.0625 C-7.68818359 10.44115234 -7.68818359 10.44115234 -7.81640625 11.84765625 C-7.87699219 12.55792969 -7.93757813 13.26820312 -8 14 C-8.33 14 -8.66 14 -9 14 C-9.22151549 12.20991533 -9.42682213 10.41781838 -9.625 8.625 C-9.74101562 7.62726563 -9.85703125 6.62953125 -9.9765625 5.6015625 C-9.98429687 4.74304688 -9.99203125 3.88453125 -10 3 C-6.99382731 -0.00617269 -4.17618402 0.40414684 0 0 Z " fill="#0A0B0C" transform="translate(27,86)"/>
<path d="M0 0 C0.33 0 0.66 0 1 0 C1 1.65 1 3.3 1 5 C2.65 4.67 4.3 4.34 6 4 C5.34 6.64 4.68 9.28 4 12 C3.566875 11.34 3.13375 10.68 2.6875 10 C1.8521875 9.01 1.8521875 9.01 1 8 C0.01 8 -0.98 8 -2 8 C-2 7.34 -2 6.68 -2 6 C-1.34 6 -0.68 6 0 6 C0 4.02 0 2.04 0 0 Z " fill="#090808" transform="translate(70,67)"/>
<path d="M0 0 C2.29633824 3.44450737 2.54016485 5.93812283 3 10 C2.34 10 1.68 10 1 10 C1 9.01 1 8.02 1 7 C0.01 7.33 -0.98 7.66 -2 8 C-2.33 7.01 -2.66 6.02 -3 5 C-2.01 5 -1.02 5 0 5 C0 3.35 0 1.7 0 0 Z " fill="#060504" transform="translate(88,67)"/>
<path d="M0 0 C0.33 0 0.66 0 1 0 C1 2.31 1 4.62 1 7 C0.01 7.495 0.01 7.495 -1 8 C-2.65 6.02 -4.3 4.04 -6 2 C-4.35 2 -2.7 2 -1 2 C-0.67 1.34 -0.34 0.68 0 0 Z " fill="#D767AA" transform="translate(65,58)"/>
<path d="M0 0 C0.99 0 1.98 0 3 0 C2.67 1.65 2.34 3.3 2 5 C-1.3 4.34 -4.6 3.68 -8 3 C-8 2.67 -8 2.34 -8 2 C-5.36 2 -2.72 2 0 2 C0 1.34 0 0.68 0 0 Z " fill="#58493D" transform="translate(29,86)"/>
<path d="M0 0 C2.31 0 4.62 0 7 0 C7 0.33 7 0.66 7 1 C5.35 1 3.7 1 2 1 C2 2.32 2 3.64 2 5 C3.32 5.33 4.64 5.66 6 6 C4.02 6.33 2.04 6.66 0 7 C0 4.69 0 2.38 0 0 Z " fill="#F8E47A" transform="translate(61,39)"/>
<path d="M0 0 C0.66 0 1.32 0 2 0 C2.33 1.32 2.66 2.64 3 4 C0.625 5.5625 0.625 5.5625 -2 7 C-2.66 6.67 -3.32 6.34 -4 6 C-3.525625 5.566875 -3.05125 5.13375 -2.5625 4.6875 C-0.76313043 2.97690387 -0.76313043 2.97690387 0 0 Z " fill="#1F348F" transform="translate(87,79)"/>
<path d="M0 0 C0.33 0 0.66 0 1 0 C1.22036864 3.85645121 0.60355101 6.49223216 -1 10 C-2 8 -3 6 -4 4 C-3.34 4 -2.68 4 -2 4 C-1.67 3.01 -1.34 2.02 -1 1 C-0.67 0.67 -0.34 0.34 0 0 Z " fill="#312E2D" transform="translate(45,101)"/>
<path d="M0 0 C1.32 0 2.64 0 4 0 C4 0.66 4 1.32 4 2 C4.66 2.33 5.32 2.66 6 3 C4.68 4.32 3.36 5.64 2 7 C1.67 6.01 1.34 5.02 1 4 C1.66 3.01 2.32 2.02 3 1 C2.01 0.67 1.02 0.34 0 0 Z " fill="#352621" transform="translate(81,88)"/>
<path d="M0 0 C-0.33 1.32 -0.66 2.64 -1 4 C-2.98 4.33 -4.96 4.66 -7 5 C-6.67 3.68 -6.34 2.36 -6 1 C-3.92446352 0.4465236 -2.15634036 0 0 0 Z " fill="#111116" transform="translate(81,69)"/>
<path d="M0 0 C2.625 0.9375 2.625 0.9375 5 2 C3 4 3 4 0.375 4.125 C-0.40875 4.08375 -1.1925 4.0425 -2 4 C-2 3.01 -2 2.02 -2 1 C-1.34 0.67 -0.68 0.34 0 0 Z " fill="#1C181A" transform="translate(28,70)"/>
<path d="M0 0 C1.67542976 0.28604898 3.34385343 0.61781233 5 1 C5 1.66 5 2.32 5 3 C2.69 3.66 0.38 4.32 -2 5 C-1.125 1.125 -1.125 1.125 0 0 Z " fill="#25151E" transform="translate(58,57)"/>
<path d="M0 0 C0.99 0 1.98 0 3 0 C3 2.31 3 4.62 3 7 C2.34 7 1.68 7 1 7 C0.67 4.69 0.34 2.38 0 0 Z " fill="#2B2827" transform="translate(17,109)"/>
<path d="M0 0 C0.93423645 3.01031744 1.04449911 3.86650268 0 7 C-0.99 6.34 -1.98 5.68 -3 5 C-2.625 3.0625 -2.625 3.0625 -2 1 C-1.34 0.67 -0.68 0.34 0 0 Z " fill="#191A20" transform="translate(69,79)"/>
<path d="M0 0 C3.875 4.75 3.875 4.75 5 7 C2.97954558 6.39816251 0.97888961 5.72693904 -1 5 C-1.33 4.34 -1.66 3.68 -2 3 C-1.34 2.01 -0.68 1.02 0 0 Z " fill="#22389B" transform="translate(71,79)"/>
<path d="M0 0 C-0.33 0.66 -0.66 1.32 -1 2 C-5.455 1.01 -5.455 1.01 -10 0 C-10 -0.33 -10 -0.66 -10 -1 C-5.92224809 -1.9267618 -3.57818963 -2.33958553 0 0 Z " fill="#293239" transform="translate(44,89)"/>
<path d="M0 0 C1.5625 1.25 1.5625 1.25 3 3 C2.875 5.125 2.875 5.125 2 7 C1.01 7.33 0.02 7.66 -1 8 C-0.67 5.36 -0.34 2.72 0 0 Z " fill="#0D0A08" transform="translate(36,74)"/>
<path d="M0 0 C0.66 0.66 1.32 1.32 2 2 C1.34 3.98 0.68 5.96 0 8 C-0.33 7.34 -0.66 6.68 -1 6 C-1.66 5.67 -2.32 5.34 -3 5 C-2.01 3.35 -1.02 1.7 0 0 Z " fill="#2C1924" transform="translate(53,57)"/>
</svg>
